<?xml version="1.0" encoding="iso-8859-1"?>
<!-- Generator: Adobe Illustrator 19.0.1, SVG Export Plug-In . SVG Version: 6.00 Build 0)  -->
<svg version="1.1" id="Layer_1" xmlns="http://www.w3.org/2000/svg" xmlns:xlink="http://www.w3.org/1999/xlink" x="0px" y="0px"
	 viewBox="0 0 612 210.207" style="enable-background:new 0 0 612 210.207;" xml:space="preserve">
<g>
	<g>
		<path style="fill-rule:evenodd;clip-rule:evenodd;fill:#A1C05E;" d="M166.131,78.47c-5.047,0-9.139,4.156-9.139,9.282v36.274
			c0,5.127,4.092,9.283,9.139,9.283c5.048,0,9.139-4.156,9.139-9.283V87.752C175.271,82.626,171.179,78.47,166.131,78.47z
			 M55.892,78.47c-5.047,0-9.139,4.156-9.139,9.282v36.274c0,5.127,4.092,9.283,9.139,9.283s9.139-4.156,9.139-9.283V87.752
			C65.031,82.626,60.939,78.47,55.892,78.47z"/>
		<path style="fill-rule:evenodd;clip-rule:evenodd;fill:#A1C05E;" d="M70.531,78.751v66.272c0,3.936,3.191,7.127,7.127,7.127h8.143
			v20.182c0,5.127,4.092,9.283,9.139,9.283c5.048,0,9.14-4.156,9.14-9.283V152.15h14.225v20.182c0,5.127,4.092,9.283,9.139,9.283
			c5.048,0,9.14-4.156,9.14-9.283V152.15h8.142c3.937,0,7.128-3.191,7.128-7.127V78.751H70.531z"/>
		<path style="fill-rule:evenodd;clip-rule:evenodd;fill:#A1C05E;" d="M130.288,44.41l7.512-10.905
			c0.446-0.648,0.335-1.499-0.248-1.9c-0.583-0.401-1.417-0.202-1.863,0.446l-7.804,11.328c-5.142-2.026-10.856-3.155-16.875-3.155
			c-6.019,0-11.732,1.129-16.874,3.155l-7.804-11.328c-0.446-0.648-1.28-0.847-1.863-0.446c-0.583,0.402-0.694,1.253-0.248,1.9
			l7.512,10.905C79.792,49.966,71.416,60.524,70.35,72.846h81.323C150.607,60.524,142.231,49.966,130.288,44.41z M93.857,61.597
			c-2.485,0-4.499-2.014-4.499-4.499c0-2.485,2.014-4.499,4.499-4.499c2.485,0,4.499,2.014,4.499,4.499
			C98.356,59.582,96.342,61.597,93.857,61.597z M128.729,61.597c-2.485,0-4.499-2.014-4.499-4.499c0-2.485,2.014-4.499,4.499-4.499
			c2.486,0,4.5,2.014,4.5,4.499C133.228,59.582,131.214,61.597,128.729,61.597z"/>
	</g>
	<g>
		<path style="fill-rule:evenodd;clip-rule:evenodd;fill:#525051;" d="M239.549,133.081V83.48h-27.833
			c-14.809,0-26.814,11.102-26.814,24.803c0,13.694,12.005,24.798,26.814,24.798h8.526v-10.782h-8.49
			c-8.61,0-15.621-6.061-15.621-14.016c0-7.962,6.842-14.023,15.447-14.023h17.269v38.821H239.549z"/>
		<path style="fill-rule:evenodd;clip-rule:evenodd;fill:#525051;" d="M275.001,81.617c-14.217,0-25.743,9.781-25.743,24.611v26.852
			h10.469V105.63c0-9.553,8.162-15.063,15.274-15.063c7.106,0,15.126,5.51,15.126,15.063l-0.005,27.449h10.622v-26.852
			C300.743,91.398,289.219,81.617,275.001,81.617z"/>
		<path style="fill-rule:evenodd;clip-rule:evenodd;fill:#525051;" d="M358.723,107.971c0-14.297-9.439-24.491-23.657-24.491
			h-23.599v10.78h24.169c9.16,0,12.945,6.416,12.945,13.562c0,7.145-3.927,14.477-13.087,14.477l-24.169-0.005v10.676h23.6
			C349.136,132.97,358.723,122.264,358.723,107.971z"/>
		<path style="fill-rule:evenodd;clip-rule:evenodd;fill:#525051;" d="M553.938,107.971c0-14.297-9.446-24.491-23.664-24.491
			h-23.593v10.78h24.169c9.159,0,12.939,6.416,12.939,13.562c0,7.145-3.921,14.477-13.086,14.477l-24.165-0.005v10.676h23.594
			C544.35,132.97,553.938,122.264,553.938,107.971z"/>
		<path style="fill-rule:evenodd;clip-rule:evenodd;fill:#525051;" d="M407.673,116.329c4.563-2.486,6.829-7.05,6.829-14.863
			c0-13.748-7.302-17.987-21.521-17.987h-23.594v10.78h24.169c9.161,0,10.797,2.92,10.797,7.06c0,4.139-1.325,7.686-10.486,7.686
			l-24.169-0.004l-0.016,9.908h23.598c0.226,0,0.445-0.003,0.666-0.006c4.686,0.509,8.337,4.49,8.337,9.324
			c0,1.552,0.275,3.015-0.391,4.304c0.005,0.179,0.65,0.363,0.65,0.549h9.746C412.288,133.081,414.057,122.517,407.673,116.329z"/>
		<path style="fill-rule:evenodd;clip-rule:evenodd;fill:#525051;" d="M424.278,107.569c0,14.106,10.96,25.538,24.48,25.538
			c13.522,0,24.483-11.432,24.483-25.538c0-14.099-10.96-25.531-24.483-25.531C435.238,82.038,424.278,93.47,424.278,107.569z
			 M434.103,107.569c0-8.44,6.562-15.288,14.655-15.288c8.095,0,14.656,6.848,14.656,15.288c0,8.448-6.562,15.289-14.656,15.289
			C440.665,122.858,434.103,116.017,434.103,107.569z"/>
		<rect x="485.192" y="83.48" style="fill-rule:evenodd;clip-rule:evenodd;fill:#525051;" width="10.729" height="49.601"/>
	</g>
</g>
</svg>
