<?xml version="1.0" encoding="iso-8859-1"?>
<!-- Generator: Adobe Illustrator 19.0.1, SVG Export Plug-In . SVG Version: 6.00 Build 0)  -->
<svg version="1.1" id="Layer_1" xmlns="http://www.w3.org/2000/svg" xmlns:xlink="http://www.w3.org/1999/xlink" x="0px" y="0px"
	 viewBox="0 0 718 205" style="enable-background:new 0 0 718 205;" xml:space="preserve">
<g>
	<path style="fill:#3497DA;" d="M143.301,25c5.205,1.583,8.429,5.164,11.069,9.846c11.165,19.794,22.5,39.493,33.94,59.13
		c3.46,5.94,3.458,11.416-0.002,17.361c-11.766,20.214-23.385,40.514-34.934,60.853c-2.349,4.138-5.709,6.665-10.074,8.125
		c-26.17,0-52.341,0-78.511,0c-4.244-1.436-7.623-3.809-9.91-7.865c-7.567-13.422-15.3-26.75-22.969-40.115
		c-4.97-8.66-9.94-17.32-14.91-25.98c0-2.465,0-4.931,0-7.396c1.402-1.336,1.798-3.244,2.727-4.852
		c11.397-19.727,22.816-39.441,34.007-59.284c2.637-4.676,5.863-8.24,11.055-9.824C90.96,25,117.13,25,143.301,25z M104.002,103.164
		c0.747,1.265,1.237,2.056,1.69,2.867c6.233,11.156,12.53,22.277,18.636,33.503c1.291,2.374,2.689,3.576,5.492,3.306
		c2.629-0.253,5.301-0.05,7.955-0.055c4.05-0.008,4.508-0.74,2.552-4.252c-6.216-11.165-12.411-22.343-18.731-33.45
		c-1.025-1.801-0.987-3.114,0.021-4.894c6.394-11.282,12.678-22.627,18.966-33.969c1.479-2.667,0.912-3.64-2.071-3.679
		c-3.221-0.043-6.448,0.097-9.664-0.049c-1.983-0.09-3.087,0.658-4.021,2.38c-3.881,7.155-7.889,14.242-11.859,21.349
		c-2.888,5.171-5.791,10.333-8.674,15.476c-0.979-0.365-1.111-1.076-1.418-1.623C96.351,88.43,89.804,76.799,83.358,65.112
		c-1.039-1.884-2.22-2.783-4.454-2.63c-2.924,0.199-5.872,0.042-8.809,0.051c-3.822,0.011-4.256,0.746-2.361,4.155
		c6.026,10.838,11.98,21.717,18.185,32.452c1.462,2.529,1.521,4.363,0.061,6.902C79.703,116.953,73.643,127.991,67.536,139
		c-1.61,2.903-1.101,3.748,2.159,3.781c2.464,0.025,4.96-0.249,7.384,0.064c3.676,0.475,5.509-1.11,7.211-4.282
		C90.592,126.815,97.235,115.25,104.002,103.164z"/>
	<path style="fill:#3798DB;" d="M697.327,146.518c-4.169,0.041-8.343-0.032-12.505,0.169c-2.178,0.105-2.698-0.631-2.681-2.731
		c0.097-11.756,0.051-23.514,0.042-35.271c-0.002-2.843-0.016-5.683-0.667-8.482c-1.128-4.849-3.198-9.01-8.338-10.608
		c-5.367-1.668-10.34-0.688-14.614,3.013c-4.188,3.627-6.114,8.366-6.137,13.848c-0.052,12.326-0.114,24.653,0.023,36.977
		c0.029,2.648-0.714,3.454-3.313,3.26c-3.017-0.225-6.076-0.218-9.095-0.002c-2.587,0.185-3.371-0.609-3.354-3.276
		c0.117-18.489,0.062-36.978,0.062-55.467c0-2.655,0.07-5.312-0.026-7.964c-0.057-1.567,0.407-2.19,2.076-2.144
		c3.885,0.107,7.775,0.087,11.661,0.008c1.491-0.03,1.997,0.486,1.949,1.967c-0.091,2.787-0.026,5.579-0.026,8.833
		c1.802-2.15,3.111-3.992,4.696-5.555c7.141-7.041,19.427-9.052,28.545-4.794c6.75,3.152,9.635,9.005,11.227,15.83
		c0.419,1.794,0.118,3.739,1.146,5.398c0,0.19,0,0.379,0,0.569c-1.11,0.883-0.56,2.105-0.565,3.16
		C697.37,117.678,697.354,132.098,697.327,146.518z"/>
	<path style="fill:#82BFE7;" d="M697.327,146.518c0.028-14.42,0.044-28.84,0.108-43.26c0.005-1.055-0.545-2.277,0.565-3.16
		c0,15.551,0,31.101,0,46.652C697.776,146.672,697.551,146.595,697.327,146.518z"/>
	<path style="fill:#3698DB;" d="M395.314,87.951c1.264-0.491,1.521-1.476,2.062-2.182c7.245-9.47,20.696-12.473,30.547-6.82
		c3.384,1.942,6.113,4.561,7.695,8.113c1.012,2.271,1.505,1.947,2.76,0.186c6.599-9.265,17.295-13.115,28.289-10.298
		c6.816,1.746,11.107,6.179,13.437,12.693c1.519,4.247,2.067,8.677,2.102,13.127c0.108,13.84,0.022,27.681,0.104,41.52
		c0.011,1.898-0.589,2.451-2.434,2.386c-3.598-0.127-7.208-0.147-10.804,0.006c-2.029,0.086-2.549-0.614-2.536-2.578
		c0.08-12.133,0.032-24.268,0.038-36.402c0.002-3.517-0.34-6.965-1.227-10.399c-2.582-9.996-15.361-10.224-20.301-5.311
		c-4.697,4.672-6.394,10.39-6.419,16.762c-0.047,11.66-0.081,23.321,0.04,34.98c0.025,2.385-0.663,3.102-3.011,2.956
		c-3.211-0.2-6.451-0.187-9.663-0.003c-2.225,0.128-2.881-0.535-2.86-2.813c0.113-12.417,0.045-24.836,0.057-37.255
		c0.003-2.858-0.302-5.667-1.062-8.426c-1.454-5.282-4.753-8.484-10.293-9.2c-5.402-0.698-9.688,1.209-12.789,5.629
		c-2.761,3.937-3.721,8.439-3.723,13.183c-0.004,11.85-0.069,23.7,0.046,35.548c0.024,2.47-0.427,3.568-3.201,3.348
		c-3.392-0.268-6.823-0.137-10.232-0.034c-1.647,0.05-2.095-0.561-2.092-2.141c0.04-21.519,0.04-43.038-0.001-64.557
		c-0.003-1.569,0.406-2.176,2.064-2.129c3.789,0.107,7.585,0.106,11.374,0c1.645-0.046,2.133,0.527,2.065,2.116
		C395.233,82.564,395.314,85.177,395.314,87.951z"/>
	<path style="fill:#3697DA;" d="M237.692,59.661c6.286,0,12.068,0.076,17.846-0.045c1.784-0.037,2.192,1.052,2.777,2.26
		c4.461,9.202,8.942,18.394,13.421,27.588c0.41,0.84,0.85,1.666,1.513,2.96c2.552-4.814,4.919-9.265,7.273-13.723
		c3.007-5.695,6.056-11.369,8.966-17.113c0.756-1.493,1.66-1.998,3.304-1.964c5.078,0.104,10.159,0.038,15.723,0.038
		c-4.114,7.009-7.975,13.602-11.852,20.185c-4.038,6.857-8.053,13.727-12.168,20.538c-0.976,1.616-1.084,2.844-0.053,4.57
		c7.482,12.523,14.834,25.124,22.226,37.701c0.67,1.139,1.327,2.286,2.312,3.985c-3.255,0-6.112,0.019-8.969-0.005
		c-3.312-0.028-7.112,0.898-9.799-0.423c-2.725-1.339-3.379-5.46-4.928-8.364c-3.923-7.353-7.735-14.764-11.596-22.15
		c-0.433-0.828-0.891-1.642-1.531-2.818c-3.458,6.477-6.747,12.633-10.032,18.792c-2.273,4.262-4.624,8.486-6.763,12.815
		c-0.844,1.708-1.885,2.257-3.749,2.199c-4.452-0.14-8.912-0.025-13.368-0.062c-0.904-0.008-2.113,0.464-2.647-0.382
		c-0.582-0.924,0.504-1.7,0.978-2.455c7.448-11.881,14.736-23.869,22.501-35.54c2.6-3.908,2.69-6.709,0.24-10.734
		c-6.893-11.323-13.264-22.964-19.833-34.484C238.932,62.058,238.434,61.059,237.692,59.661z"/>
	<path style="fill:#3698DB;" d="M316.876,95.712c0-4.293,0.05-8.084-0.028-11.872c-0.026-1.26,0.512-1.931,1.563-2.385
		c10.206-4.411,20.741-6.797,31.821-4.308c10.283,2.31,16.113,9.358,17.256,19.979c0.785,7.287,0.337,14.585,0.417,21.877
		c0.09,8.248-0.075,16.499,0.08,24.745c0.046,2.445-0.742,3.067-3.051,2.94c-3.403-0.187-6.826-0.117-10.236-0.019
		c-1.608,0.046-2.193-0.476-2.113-2.104c0.114-2.315,0.029-4.64,0.029-7.608c-2.6,3.237-4.744,6.015-7.82,7.759
		c-8.516,4.829-17.265,5.023-25.702,0.214c-7.337-4.182-9.503-11.356-8.755-19.306c1.146-12.169,8.162-18.678,21.257-20.397
		c6.289-0.826,12.554-1.842,18.854-2.566c2.121-0.244,2.358-1.189,2.155-2.956c-0.912-7.93-6.111-11.982-14.429-11.385
		c-7.151,0.513-13.744,2.531-19.684,6.591C318.127,95.16,317.697,95.31,316.876,95.712z M352.678,118.13
		c0-1.23-0.027-2.461,0.008-3.691c0.03-1.037-0.476-1.314-1.407-1.152c-6.047,1.051-12.241,1.212-18.191,2.809
		c-6.288,1.687-9.234,7.448-7.064,13.473c1.696,4.71,7.713,7.372,13.871,6.136C348.016,134.075,352.659,127.696,352.678,118.13z"/>
	<path style="fill:#3698DB;" d="M533.619,136.879c-3.324,4.755-6.864,8.1-11.643,9.809c-6.102,2.183-12.303,2.236-18.36-0.028
		c-7.474-2.793-11.585-8.411-12.119-16.316c-0.99-14.642,6.194-23.1,20.973-25.097c6.375-0.861,12.739-1.803,19.123-2.595
		c1.685-0.209,2.139-0.831,2.067-2.522c-0.335-7.815-5.848-12.352-14.24-11.802c-7.052,0.462-13.579,2.384-19.455,6.339
		c-1.416,0.953-2.119,1.093-2.06-1c0.089-3.124,0.083-6.254-0.001-9.378c-0.038-1.412,0.395-2.317,1.719-2.889
		c10.114-4.367,20.553-6.687,31.529-4.299c11.056,2.406,17.339,10.222,17.644,22.658c0.367,14.961,0.112,29.936,0.171,44.905
		c0.006,1.425-0.363,2.037-1.903,2.001c-3.788-0.087-7.58-0.091-11.368,0.003c-1.609,0.04-2.187-0.489-2.106-2.109
		C533.704,142.295,533.619,140.019,533.619,136.879z M533.714,118.436c0.032-5.206,0.015-5.325-5.066-4.607
		c-5.036,0.711-10.159,0.95-15.066,2.44c-3.367,1.023-5.889,2.954-6.686,6.608c-1.598,7.325,2.594,12.726,10.127,13.044
		C526.976,136.342,533.648,129.353,533.714,118.436z"/>
	<path style="fill:#3697DA;" d="M576.774,90.357c1.916-3.413,3.555-6.792,6.399-9.409c4.596-4.229,10.065-4.833,15.915-3.868
		c1.012,0.167,1.7,0.558,1.684,1.822c-0.058,4.521-0.023,9.044-0.023,13.839c-3.428-1.478-6.692-2.47-10.14-2.066
		c-6.703,0.786-11.592,5.996-13.161,13.759c-0.547,2.709-0.679,5.436-0.676,8.186c0.011,10.419-0.068,20.839,0.06,31.257
		c0.028,2.302-0.671,2.918-2.875,2.808c-3.496-0.173-7.008-0.107-10.511-0.02c-1.573,0.039-2.156-0.44-2.153-2.086
		c0.044-21.596,0.041-43.192,0.005-64.788c-0.003-1.491,0.489-1.97,1.963-1.94c3.882,0.08,7.768,0.089,11.649-0.003
		c1.558-0.037,1.921,0.585,1.89,2.005C576.723,83.353,576.774,86.855,576.774,90.357z"/>
	<path style="fill:#3A9ADB;" d="M623.855,112.045c0,10.524-0.095,21.05,0.067,31.572c0.04,2.61-0.778,3.237-3.213,3.081
		c-3.21-0.206-6.457-0.226-9.664,0.005c-2.554,0.184-2.895-0.897-2.883-3.108c0.085-15.644,0.045-31.288,0.045-46.933
		c0-5.215,0.175-10.438-0.071-15.641c-0.131-2.761,0.867-3.353,3.353-3.198c3.117,0.194,6.264,0.191,9.381-0.001
		c2.312-0.142,3.078,0.487,3.045,2.935C623.774,91.185,623.855,101.615,623.855,112.045z"/>
	<path style="fill:#3798DB;" d="M606.848,53.639c-0.045-5.114,3.944-9.139,9.148-9.234c5.294-0.096,9.689,4.004,9.718,9.065
		c0.028,5.005-4.082,8.956-9.394,9.03C611.023,62.574,606.892,58.709,606.848,53.639z"/>
</g>
</svg>
