<?xml version="1.0" encoding="iso-8859-1"?>
<!-- Generator: Adobe Illustrator 19.0.1, SVG Export Plug-In . SVG Version: 6.00 Build 0)  -->
<svg version="1.1" id="Layer_1" xmlns="http://www.w3.org/2000/svg" xmlns:xlink="http://www.w3.org/1999/xlink" x="0px" y="0px"
	 viewBox="0 0 1000 768" style="enable-background:new 0 0 1000 768;" xml:space="preserve">
<path d="M735.477,274.018c-51.087,35.411-80.331,82.258-76.052,145.925c4.273,63.565,38.812,106.482,94.86,134.269
	c-1.52,4.434-3.07,9.207-4.786,13.919c-12.744,34.989-30.24,67.448-51.892,97.721c-9.382,13.118-18.721,26.255-29.603,38.202
	c-10.797,11.854-22.651,22.389-37.127,29.647c-12.766,6.401-26.27,9.141-40.534,8.639c-15.556-0.547-30.065-5.008-44.189-11.151
	c-10.435-4.539-20.826-9.209-31.823-12.294c-17.333-4.863-34.942-5.802-52.782-3.79c-15.292,1.724-29.667,6.54-43.732,12.528
	c-10.815,4.605-21.554,9.432-33.026,12.283c-10.266,2.552-20.648,4.001-31.242,3.045c-12.035-1.086-22.941-5.453-33.124-11.772
	c-13.85-8.595-25.437-19.773-35.937-32.091c-46.222-54.229-78.862-115.569-96.5-184.748c-4.904-19.236-8.631-38.684-10.812-58.414
	c-2.505-22.664-2.997-45.37-0.798-68.087c2.552-26.362,8.56-51.863,19.603-76.034c16.589-36.31,41.768-64.922,76.617-84.687
	c20.117-11.41,41.753-18.181,64.768-20.778c20.681-2.334,40.721,0.306,60.216,7.177c13.572,4.784,26.916,10.212,40.447,15.118
	c6.728,2.439,13.584,4.584,20.493,6.448c9.972,2.69,19.798,1.143,29.303-2.277c12.538-4.511,24.969-9.322,37.426-14.058
	c12.474-4.742,25.105-8.972,38.139-11.91c14.606-3.292,29.346-4.118,44.291-3.024c22.977,1.683,44.962,7.004,65.746,16.984
	c24.993,12.001,45.448,29.394,61.33,52.138C735.048,273.358,735.319,273.781,735.477,274.018z"/>
<path d="M606.321,31.922c0.909,7.986,1.043,15.85,0.371,23.7c-2.896,33.811-15.924,63.502-37.312,89.543
	c-17.318,21.085-38.912,36.333-64.851,45.152c-12.577,4.276-25.519,6.226-38.828,5.575c-1.474-0.072-2.001-0.459-2.167-2.012
	c-2.576-23.992,2.616-46.588,12.542-68.224C496.517,81.101,530.703,52.064,577.075,37c8.469-2.751,17.184-4.372,26.063-5.068
	C604.132,31.855,605.138,31.922,606.321,31.922z"/>
</svg>
